<svg id="visual" viewBox="0 0 900 600" width="900" height="600" xmlns="http://www.w3.org/2000/svg" xmlns:xlink="http://www.w3.org/1999/xlink" version="1.1"><rect x="0" y="0" width="900" height="600" fill="#001220"></rect><defs><linearGradient id="grad1_0" x1="33.3%" y1="0%" x2="100%" y2="100%"><stop offset="20%" stop-color="#001220" stop-opacity="1"></stop><stop offset="80%" stop-color="#001220" stop-opacity="1"></stop></linearGradient></defs><defs><linearGradient id="grad2_0" x1="0%" y1="0%" x2="66.7%" y2="100%"><stop offset="20%" stop-color="#001220" stop-opacity="1"></stop><stop offset="80%" stop-color="#001220" stop-opacity="1"></stop></linearGradient></defs><g transform="translate(900, 0)"><path d="M0 324.5C-24.9 307.6 -49.8 290.8 -75.8 283C-101.9 275.3 -129.2 276.7 -156 270.2C-182.8 263.7 -209.1 249.4 -229.5 229.5C-249.8 209.5 -264.1 184 -273.7 158C-283.2 132 -287.9 105.6 -295.6 79.2C-303.2 52.8 -313.9 26.4 -324.5 0L0 0Z" fill="#f6f6f6"></path></g><g transform="translate(0, 600)"><path d="M0 -324.5C25.2 -311.8 50.4 -299.2 78.7 -293.6C107 -288.1 138.3 -289.7 159 -275.4C179.7 -261.1 189.8 -230.9 211.4 -211.4C233 -191.9 266.2 -183.1 281 -162.2C295.9 -141.4 292.3 -108.5 296.5 -79.5C300.7 -50.4 312.6 -25.2 324.5 0L0 0Z" fill="#f6f6f6"></path></g></svg>